<svg width="407" height="19" viewBox="0 0 407 19" fill="none" xmlns="http://www.w3.org/2000/svg">
<rect width="16" height="16" transform="translate(0 1.5)" fill="white" style="mix-blend-mode:multiply"/>
<path d="M8 9.5H2V10.5H8V9.5Z" fill="white"/>
<path d="M6 7H1V8H6V7Z" fill="white"/>
<path d="M14.9594 9.8032L13.4594 6.3032C13.421 6.21319 13.357 6.13646 13.2753 6.08256C13.1936 6.02865 13.0979 5.99994 13 6H11.5V5C11.5 4.86739 11.4473 4.74021 11.3536 4.64645C11.2598 4.55268 11.1326 4.5 11 4.5H3V5.5H10.5V11.7781C10.2722 11.9104 10.0728 12.0865 9.91339 12.2962C9.75395 12.5059 9.6376 12.7451 9.57105 13H6.42895C6.30725 12.5287 6.01784 12.1179 5.61495 11.8447C5.21206 11.5715 4.72336 11.4546 4.24045 11.5159C3.75754 11.5773 3.31358 11.8126 2.99179 12.1779C2.66999 12.5431 2.49246 13.0132 2.49246 13.5C2.49246 13.9868 2.66999 14.4569 2.99179 14.8221C3.31358 15.1874 3.75754 15.4227 4.24045 15.4841C4.72336 15.5454 5.21206 15.4285 5.61495 15.1553C6.01784 14.8821 6.30725 14.4713 6.42895 14H9.57105C9.68007 14.4289 9.92892 14.8092 10.2783 15.0808C10.6276 15.3525 11.0575 15.4999 11.5 15.4999C11.9425 15.4999 12.3724 15.3525 12.7217 15.0808C13.0711 14.8092 13.3199 14.4289 13.429 14H14.5C14.6326 14 14.7598 13.9473 14.8536 13.8536C14.9473 13.7598 15 13.6326 15 13.5V10C15 9.93233 14.9862 9.86537 14.9594 9.8032ZM4.5 14.5C4.30222 14.5 4.10888 14.4414 3.94443 14.3315C3.77998 14.2216 3.65181 14.0654 3.57612 13.8827C3.50043 13.7 3.48063 13.4989 3.51921 13.3049C3.5578 13.1109 3.65304 12.9327 3.79289 12.7929C3.93275 12.653 4.11093 12.5578 4.30491 12.5192C4.49889 12.4806 4.69996 12.5004 4.88268 12.5761C5.06541 12.6518 5.22159 12.78 5.33147 12.9444C5.44135 13.1089 5.5 13.3022 5.5 13.5C5.4997 13.7651 5.39424 14.0193 5.20677 14.2068C5.0193 14.3942 4.76512 14.4997 4.5 14.5ZM11.5 7H12.6704L13.742 9.5H11.5V7ZM11.5 14.5C11.3022 14.5 11.1089 14.4414 10.9444 14.3315C10.78 14.2216 10.6518 14.0654 10.5761 13.8827C10.5004 13.7 10.4806 13.4989 10.5192 13.3049C10.5578 13.1109 10.653 12.9327 10.7929 12.7929C10.9327 12.653 11.1109 12.5578 11.3049 12.5192C11.4989 12.4806 11.7 12.5004 11.8827 12.5761C12.0654 12.6518 12.2216 12.78 12.3315 12.9444C12.4414 13.1089 12.5 13.3022 12.5 13.5C12.4997 13.7651 12.3942 14.0193 12.2068 14.2068C12.0193 14.3942 11.7651 14.4997 11.5 14.5ZM14 13H13.429C13.3188 12.5717 13.0696 12.1921 12.7206 11.9207C12.3715 11.6492 11.9422 11.5013 11.5 11.5V10.5H14V13Z" fill="white"/>
<path d="M30.328 10.59V9.68H26.226V5.9H31.126V4.976H25.218V15H26.226V10.59H30.328ZM35.7277 8.14C35.4897 8.084 35.3077 8.07 35.0977 8.07C34.1457 8.07 33.4317 8.546 33.1657 9.274L33.0957 8.224H32.1857V15H33.1517V11.136C33.1517 9.848 33.9497 9.008 35.1957 9.008H35.7277V8.14ZM39.5941 15.168C41.1901 15.168 42.2401 14.398 42.6041 12.97H41.6801C41.4281 13.866 40.7141 14.342 39.6081 14.342C38.1521 14.342 37.2841 13.39 37.2141 11.738H42.6041V11.262C42.6041 9.344 41.3581 8.042 39.5241 8.042C37.5921 8.042 36.2761 9.498 36.2761 11.612C36.2761 13.74 37.6061 15.168 39.5941 15.168ZM39.5241 8.868C40.7981 8.868 41.6381 9.736 41.6381 11.038H37.2421C37.4101 9.708 38.2501 8.868 39.5241 8.868ZM46.9906 15.168C48.5866 15.168 49.6366 14.398 50.0006 12.97H49.0766C48.8246 13.866 48.1106 14.342 47.0046 14.342C45.5486 14.342 44.6806 13.39 44.6106 11.738H50.0006V11.262C50.0006 9.344 48.7546 8.042 46.9206 8.042C44.9886 8.042 43.6726 9.498 43.6726 11.612C43.6726 13.74 45.0026 15.168 46.9906 15.168ZM46.9206 8.868C48.1946 8.868 49.0346 9.736 49.0346 11.038H44.6386C44.8066 9.708 45.6466 8.868 46.9206 8.868ZM58.0879 15.168C59.2219 15.168 60.1739 14.664 60.6499 13.614L60.7479 15H61.5879V4.794H60.6219V9.512C60.1459 8.532 59.2499 8.042 58.1299 8.042C56.1139 8.042 54.9519 9.582 54.9519 11.626C54.9519 13.656 56.1139 15.168 58.0879 15.168ZM58.2559 14.286C56.7859 14.286 55.9319 13.166 55.9319 11.598C55.9319 10.044 56.7859 8.91 58.2559 8.91C59.7399 8.91 60.6079 10.044 60.6079 11.598C60.6079 13.166 59.7399 14.286 58.2559 14.286ZM66.4457 15.168C68.0417 15.168 69.0917 14.398 69.4557 12.97H68.5317C68.2797 13.866 67.5657 14.342 66.4597 14.342C65.0037 14.342 64.1357 13.39 64.0657 11.738H69.4557V11.262C69.4557 9.344 68.2097 8.042 66.3757 8.042C64.4437 8.042 63.1277 9.498 63.1277 11.612C63.1277 13.74 64.4577 15.168 66.4457 15.168ZM66.3757 8.868C67.6497 8.868 68.4897 9.736 68.4897 11.038H64.0937C64.2617 9.708 65.1017 8.868 66.3757 8.868ZM72.0082 15V4.794H71.0422V15H72.0082ZM74.5387 6.362C74.9307 6.362 75.2667 6.04 75.2667 5.648C75.2667 5.256 74.9307 4.92 74.5387 4.92C74.1467 4.92 73.8247 5.256 73.8247 5.648C73.8247 6.04 74.1467 6.362 74.5387 6.362ZM74.0627 15H75.0287V8.224H74.0627V15ZM78.9332 15H79.8992L82.7132 8.224H81.7192L79.9412 12.592C79.7452 13.082 79.5632 13.53 79.4372 13.992C79.3112 13.544 79.1292 13.082 78.9472 12.592L77.1972 8.224H76.1612L78.9332 15ZM86.393 15.168C87.989 15.168 89.039 14.398 89.403 12.97H88.479C88.227 13.866 87.513 14.342 86.407 14.342C84.951 14.342 84.083 13.39 84.013 11.738H89.403V11.262C89.403 9.344 88.157 8.042 86.323 8.042C84.391 8.042 83.075 9.498 83.075 11.612C83.075 13.74 84.405 15.168 86.393 15.168ZM86.323 8.868C87.597 8.868 88.437 9.736 88.437 11.038H84.041C84.209 9.708 85.049 8.868 86.323 8.868ZM94.4895 8.14C94.2515 8.084 94.0695 8.07 93.8595 8.07C92.9075 8.07 92.1935 8.546 91.9275 9.274L91.8575 8.224H90.9475V15H91.9135V11.136C91.9135 9.848 92.7115 9.008 93.9575 9.008H94.4895V8.14ZM95.2927 17.954C95.6007 18.024 95.9087 18.052 96.3147 18.052C97.2807 18.052 97.9387 17.618 98.3307 16.554L101.439 8.224H100.445L98.3027 14.132L96.1187 8.224H95.0967L97.8407 15.406L97.5467 16.204C97.2107 17.114 96.6227 17.156 96.0347 17.156H95.2927V17.954ZM105.975 11.612C105.975 13.67 107.431 15.168 109.419 15.168C111.407 15.168 112.863 13.67 112.863 11.612C112.863 9.54 111.407 8.042 109.419 8.042C107.431 8.042 105.975 9.54 105.975 11.612ZM106.955 11.598C106.955 10.03 107.963 8.91 109.419 8.91C110.861 8.91 111.883 10.03 111.883 11.598C111.883 13.194 110.861 14.3 109.419 14.3C107.963 14.3 106.955 13.194 106.955 11.598ZM115.374 15V11.458C115.374 9.932 116.158 8.924 117.544 8.924C118.664 8.924 119.378 9.484 119.378 11.066V15H120.344V10.856C120.344 9.148 119.574 8.042 117.712 8.042C116.732 8.042 115.836 8.532 115.388 9.4L115.248 8.224H114.408V15H115.374ZM128.099 15.168C129.247 15.168 130.171 14.664 130.591 13.81L130.717 15H131.529V10.618C131.529 8.826 130.381 8.042 128.813 8.042C127.147 8.042 126.027 8.924 126.027 10.296H126.909C126.909 9.386 127.609 8.854 128.785 8.854C129.779 8.854 130.577 9.274 130.577 10.604V10.828L128.337 11.01C126.755 11.136 125.803 11.92 125.803 13.166C125.803 14.356 126.657 15.168 128.099 15.168ZM128.323 14.384C127.399 14.384 126.783 13.964 126.783 13.138C126.783 12.382 127.301 11.822 128.575 11.71L130.577 11.556V11.92C130.577 13.39 129.751 14.384 128.323 14.384ZM134.475 15V4.794H133.509V15H134.475ZM137.537 15V4.794H136.571V15H137.537ZM142.999 11.612C142.999 13.67 144.455 15.168 146.443 15.168C148.431 15.168 149.887 13.67 149.887 11.612C149.887 9.54 148.431 8.042 146.443 8.042C144.455 8.042 142.999 9.54 142.999 11.612ZM143.979 11.598C143.979 10.03 144.987 8.91 146.443 8.91C147.885 8.91 148.907 10.03 148.907 11.598C148.907 13.194 147.885 14.3 146.443 14.3C144.987 14.3 143.979 13.194 143.979 11.598ZM154.974 8.14C154.736 8.084 154.554 8.07 154.344 8.07C153.392 8.07 152.678 8.546 152.412 9.274L152.342 8.224H151.432V15H152.398V11.136C152.398 9.848 153.196 9.008 154.442 9.008H154.974V8.14ZM158.658 15.168C159.792 15.168 160.744 14.664 161.22 13.614L161.318 15H162.158V4.794H161.192V9.512C160.716 8.532 159.82 8.042 158.7 8.042C156.684 8.042 155.522 9.582 155.522 11.626C155.522 13.656 156.684 15.168 158.658 15.168ZM158.826 14.286C157.356 14.286 156.502 13.166 156.502 11.598C156.502 10.044 157.356 8.91 158.826 8.91C160.31 8.91 161.178 10.044 161.178 11.598C161.178 13.166 160.31 14.286 158.826 14.286ZM167.016 15.168C168.612 15.168 169.662 14.398 170.026 12.97H169.102C168.85 13.866 168.136 14.342 167.03 14.342C165.574 14.342 164.706 13.39 164.636 11.738H170.026V11.262C170.026 9.344 168.78 8.042 166.946 8.042C165.014 8.042 163.698 9.498 163.698 11.612C163.698 13.74 165.028 15.168 167.016 15.168ZM166.946 8.868C168.22 8.868 169.06 9.736 169.06 11.038H164.664C164.832 9.708 165.672 8.868 166.946 8.868ZM175.113 8.14C174.875 8.084 174.693 8.07 174.483 8.07C173.531 8.07 172.817 8.546 172.551 9.274L172.481 8.224H171.571V15H172.537V11.136C172.537 9.848 173.335 9.008 174.581 9.008H175.113V8.14ZM175.823 13.096C175.823 14.356 176.775 15.168 178.301 15.168C179.841 15.168 180.877 14.37 180.877 13.152C180.877 12.172 180.345 11.626 179.169 11.332L178.007 11.038C177.265 10.856 176.901 10.492 176.901 9.974C176.901 9.246 177.433 8.84 178.385 8.84C179.295 8.84 179.841 9.302 179.869 10.086H180.807C180.765 8.826 179.841 8.042 178.413 8.042C176.957 8.042 175.963 8.798 175.963 9.988C175.963 10.912 176.537 11.528 177.713 11.822L178.875 12.116C179.673 12.312 179.953 12.634 179.953 13.194C179.953 13.922 179.337 14.37 178.287 14.37C177.335 14.37 176.747 13.88 176.747 13.096H175.823ZM185.874 11.612C185.874 13.67 187.33 15.168 189.318 15.168C191.306 15.168 192.762 13.67 192.762 11.612C192.762 9.54 191.306 8.042 189.318 8.042C187.33 8.042 185.874 9.54 185.874 11.612ZM186.854 11.598C186.854 10.03 187.862 8.91 189.318 8.91C190.76 8.91 191.782 10.03 191.782 11.598C191.782 13.194 190.76 14.3 189.318 14.3C187.862 14.3 186.854 13.194 186.854 11.598ZM195.896 15H196.862L199.676 8.224H198.682L196.904 12.592C196.708 13.082 196.526 13.53 196.4 13.992C196.274 13.544 196.092 13.082 195.91 12.592L194.16 8.224H193.124L195.896 15ZM203.356 15.168C204.952 15.168 206.002 14.398 206.366 12.97H205.442C205.19 13.866 204.476 14.342 203.37 14.342C201.914 14.342 201.046 13.39 200.976 11.738H206.366V11.262C206.366 9.344 205.12 8.042 203.286 8.042C201.354 8.042 200.038 9.498 200.038 11.612C200.038 13.74 201.368 15.168 203.356 15.168ZM203.286 8.868C204.56 8.868 205.4 9.736 205.4 11.038H201.004C201.172 9.708 202.012 8.868 203.286 8.868ZM211.452 8.14C211.214 8.084 211.032 8.07 210.822 8.07C209.87 8.07 209.156 8.546 208.89 9.274L208.82 8.224H207.91V15H208.876V11.136C208.876 9.848 209.674 9.008 210.92 9.008H211.452V8.14ZM220.637 15C222.569 15 223.535 13.95 223.535 11.878H222.569C222.569 13.39 222.009 14.076 220.567 14.076H217.459C218.271 13.74 218.789 12.802 218.789 11.822C218.789 11.29 218.691 10.8 218.551 10.352H221.729V9.526H218.257C218.019 8.91 217.809 8.336 217.809 7.692C217.809 6.46 218.621 5.704 219.937 5.704C221.197 5.704 221.981 6.348 222.093 7.524H223.129C222.975 5.816 221.743 4.794 219.965 4.794C218.075 4.794 216.815 5.984 216.815 7.692C216.815 8.336 217.011 8.938 217.221 9.526H216.129V10.352H217.529C217.683 10.828 217.809 11.304 217.809 11.822C217.809 12.9 217.109 13.88 216.059 14.076V15H220.637ZM228.203 15.168C230.303 15.168 231.731 13.74 231.731 11.724C231.731 9.848 230.443 8.35 228.357 8.35C227.573 8.35 226.845 8.602 226.285 9.05L227.041 5.9H231.157V4.976H226.313L225.109 10.016L225.907 10.268C226.453 9.666 227.293 9.246 228.217 9.246C229.799 9.246 230.709 10.352 230.709 11.752C230.709 13.236 229.729 14.244 228.217 14.244C226.789 14.244 225.907 13.376 225.907 11.934H224.899C224.899 13.908 226.187 15.168 228.203 15.168ZM233.075 9.988C233.075 13.11 234.573 15.182 237.093 15.182C239.599 15.182 241.097 13.11 241.097 9.988C241.097 6.88 239.571 4.78 237.093 4.78C234.601 4.78 233.075 6.88 233.075 9.988ZM234.069 9.988C234.069 7.37 235.175 5.704 237.093 5.704C239.011 5.704 240.117 7.37 240.117 9.988C240.117 12.592 239.011 14.272 237.093 14.272C235.175 14.272 234.069 12.592 234.069 9.988ZM248.18 15H249.146L250.546 10.744C250.728 10.184 250.84 9.778 250.938 9.414C251.022 9.82 251.134 10.24 251.302 10.744L252.702 15H253.64L255.936 8.224H254.928L253.584 12.312C253.346 13.04 253.318 13.208 253.178 13.768C253.052 13.264 252.884 12.676 252.758 12.312L251.428 8.224H250.434L249.09 12.312C249.02 12.536 248.796 13.222 248.684 13.768C248.544 13.222 248.418 12.76 248.264 12.312L246.934 8.224H245.94L248.18 15ZM257.619 6.362C258.011 6.362 258.347 6.04 258.347 5.648C258.347 5.256 258.011 4.92 257.619 4.92C257.227 4.92 256.905 5.256 256.905 5.648C256.905 6.04 257.227 6.362 257.619 6.362ZM257.143 15H258.109V8.224H257.143V15ZM261.677 15V9.036H263.035V8.224H261.677V6.082H260.725V8.224H259.367V9.036H260.725V15H261.677ZM265.259 14.986V11.304C265.259 10.002 266.015 8.924 267.471 8.924C268.521 8.924 269.263 9.484 269.263 11.066V15H270.229V10.856C270.229 9.148 269.431 8.042 267.653 8.042C266.519 8.042 265.693 8.588 265.259 9.4V4.794H264.293V14.986H265.259ZM275.561 11.626C275.561 13.754 276.863 15.168 278.781 15.168C280.321 15.168 281.525 14.258 281.847 12.872H280.867C280.601 13.74 279.789 14.3 278.781 14.3C277.409 14.3 276.513 13.222 276.513 11.612C276.513 9.946 277.479 8.896 278.851 8.896C279.789 8.896 280.601 9.414 280.853 10.352H281.819C281.553 8.952 280.405 8.042 278.837 8.042C276.863 8.042 275.561 9.498 275.561 11.626ZM282.835 11.612C282.835 13.67 284.291 15.168 286.279 15.168C288.267 15.168 289.723 13.67 289.723 11.612C289.723 9.54 288.267 8.042 286.279 8.042C284.291 8.042 282.835 9.54 282.835 11.612ZM283.815 11.598C283.815 10.03 284.823 8.91 286.279 8.91C287.721 8.91 288.743 10.03 288.743 11.598C288.743 13.194 287.721 14.3 286.279 14.3C284.823 14.3 283.815 13.194 283.815 11.598ZM293.928 15.168C295.062 15.168 296.014 14.664 296.49 13.614L296.588 15H297.428V4.794H296.462V9.512C295.986 8.532 295.09 8.042 293.97 8.042C291.954 8.042 290.792 9.582 290.792 11.626C290.792 13.656 291.954 15.168 293.928 15.168ZM294.096 14.286C292.626 14.286 291.772 13.166 291.772 11.598C291.772 10.044 292.626 8.91 294.096 8.91C295.58 8.91 296.448 10.044 296.448 11.598C296.448 13.166 295.58 14.286 294.096 14.286ZM302.286 15.168C303.882 15.168 304.932 14.398 305.296 12.97H304.372C304.12 13.866 303.406 14.342 302.3 14.342C300.844 14.342 299.976 13.39 299.906 11.738H305.296V11.262C305.296 9.344 304.05 8.042 302.216 8.042C300.284 8.042 298.968 9.498 298.968 11.612C298.968 13.74 300.298 15.168 302.286 15.168ZM302.216 8.868C303.49 8.868 304.33 9.736 304.33 11.038H299.934C300.102 9.708 300.942 8.868 302.216 8.868ZM313.565 15.168C315.161 15.168 316.211 14.398 316.575 12.97H315.651C315.399 13.866 314.685 14.342 313.579 14.342C312.123 14.342 311.255 13.39 311.185 11.738H316.575V11.262C316.575 9.344 315.329 8.042 313.495 8.042C311.563 8.042 310.247 9.498 310.247 11.612C310.247 13.74 311.577 15.168 313.565 15.168ZM313.495 8.868C314.769 8.868 315.609 9.736 315.609 11.038H311.213C311.381 9.708 312.221 8.868 313.495 8.868ZM319.997 15.168C321.145 15.168 322.069 14.664 322.489 13.81L322.615 15H323.427V10.618C323.427 8.826 322.279 8.042 320.711 8.042C319.045 8.042 317.925 8.924 317.925 10.296H318.807C318.807 9.386 319.507 8.854 320.683 8.854C321.677 8.854 322.475 9.274 322.475 10.604V10.828L320.235 11.01C318.653 11.136 317.701 11.92 317.701 13.166C317.701 14.356 318.555 15.168 319.997 15.168ZM320.221 14.384C319.297 14.384 318.681 13.964 318.681 13.138C318.681 12.382 319.199 11.822 320.473 11.71L322.475 11.556V11.92C322.475 13.39 321.649 14.384 320.221 14.384ZM324.791 13.096C324.791 14.356 325.743 15.168 327.269 15.168C328.809 15.168 329.845 14.37 329.845 13.152C329.845 12.172 329.313 11.626 328.137 11.332L326.975 11.038C326.233 10.856 325.869 10.492 325.869 9.974C325.869 9.246 326.401 8.84 327.353 8.84C328.263 8.84 328.809 9.302 328.837 10.086H329.775C329.733 8.826 328.809 8.042 327.381 8.042C325.925 8.042 324.931 8.798 324.931 9.988C324.931 10.912 325.505 11.528 326.681 11.822L327.843 12.116C328.641 12.312 328.921 12.634 328.921 13.194C328.921 13.922 328.305 14.37 327.255 14.37C326.303 14.37 325.715 13.88 325.715 13.096H324.791ZM332.99 15V9.036H334.348V8.224H332.99V6.082H332.038V8.224H330.68V9.036H332.038V15H332.99ZM338.379 15.168C339.975 15.168 341.025 14.398 341.389 12.97H340.465C340.213 13.866 339.499 14.342 338.393 14.342C336.937 14.342 336.069 13.39 335.999 11.738H341.389V11.262C341.389 9.344 340.143 8.042 338.309 8.042C336.377 8.042 335.061 9.498 335.061 11.612C335.061 13.74 336.391 15.168 338.379 15.168ZM338.309 8.868C339.583 8.868 340.423 9.736 340.423 11.038H336.027C336.195 9.708 337.035 8.868 338.309 8.868ZM346.476 8.14C346.238 8.084 346.056 8.07 345.846 8.07C344.894 8.07 344.18 8.546 343.914 9.274L343.844 8.224H342.934V15H343.9V11.136C343.9 9.848 344.698 9.008 345.944 9.008H346.476V8.14ZM351.167 11.626C351.167 13.754 352.469 15.168 354.387 15.168C355.927 15.168 357.131 14.258 357.453 12.872H356.473C356.207 13.74 355.395 14.3 354.387 14.3C353.015 14.3 352.119 13.222 352.119 11.612C352.119 9.946 353.085 8.896 354.457 8.896C355.395 8.896 356.207 9.414 356.459 10.352H357.425C357.159 8.952 356.011 8.042 354.443 8.042C352.469 8.042 351.167 9.498 351.167 11.626ZM359.882 14.986V11.304C359.882 10.002 360.638 8.924 362.094 8.924C363.144 8.924 363.886 9.484 363.886 11.066V15H364.852V10.856C364.852 9.148 364.054 8.042 362.276 8.042C361.142 8.042 360.316 8.588 359.882 9.4V4.794H358.916V14.986H359.882ZM369.62 15.168C371.216 15.168 372.266 14.398 372.63 12.97H371.706C371.454 13.866 370.74 14.342 369.634 14.342C368.178 14.342 367.31 13.39 367.24 11.738H372.63V11.262C372.63 9.344 371.384 8.042 369.55 8.042C367.618 8.042 366.302 9.498 366.302 11.612C366.302 13.74 367.632 15.168 369.62 15.168ZM369.55 8.868C370.824 8.868 371.664 9.736 371.664 11.038H367.268C367.436 9.708 368.276 8.868 369.55 8.868ZM373.698 11.626C373.698 13.754 375 15.168 376.918 15.168C378.458 15.168 379.662 14.258 379.984 12.872H379.004C378.738 13.74 377.926 14.3 376.918 14.3C375.546 14.3 374.65 13.222 374.65 11.612C374.65 9.946 375.616 8.896 376.988 8.896C377.926 8.896 378.738 9.414 378.99 10.352H379.956C379.69 8.952 378.542 8.042 376.974 8.042C375 8.042 373.698 9.498 373.698 11.626ZM382.455 15V12.97L383.771 11.612L385.927 15H387.047L384.429 10.926L387.033 8.224H385.815L382.455 11.724V4.794H381.489V15H382.455ZM387.493 11.612C387.493 13.67 388.949 15.168 390.937 15.168C392.925 15.168 394.381 13.67 394.381 11.612C394.381 9.54 392.925 8.042 390.937 8.042C388.949 8.042 387.493 9.54 387.493 11.612ZM388.473 11.598C388.473 10.03 389.481 8.91 390.937 8.91C392.379 8.91 393.401 10.03 393.401 11.598C393.401 13.194 392.379 14.3 390.937 14.3C389.481 14.3 388.473 13.194 388.473 11.598ZM400.522 8.224V11.822C400.522 13.432 399.752 14.3 398.45 14.3C397.372 14.3 396.658 13.726 396.658 12.116V8.21H395.678V12.424C395.678 14.076 396.546 15.168 398.142 15.168C399.206 15.168 400.144 14.636 400.522 13.852L400.648 15H401.488V8.224H400.522ZM405.054 15V9.036H406.412V8.224H405.054V6.082H404.102V8.224H402.744V9.036H404.102V15H405.054Z" fill="white"/>
</svg>
